# xmcd CD database file
#
# Track frame offsets:
#	150
#	1211
#	24282
#	40430
#	63460
#	78878
#	95639
#	112945
#	127993
#	145328
#	165833
#	185870
#	207023
#	226930
#	256083
#
# Disc length: 4382 seconds
#
# Revision: 0
# Processed by: cddbd v1.5PL3 Copyright (c) Steve Scherf et al.
# Submitted via: CDex 1.51
#
DISCID=b7111c0f
DTITLE=Various Artist - HIP HOP STORY THA SOUNDTRACK
DYEAR=1900
DGENRE=Rap U.S.
TTITLE0=KRS-One - Our Sins
TTITLE1=Bone Thugs-N-Harmony feat. Tupac Shakur - Thug Luv
TTITLE2=Smoot Feat. Jadakiss and Swizz Beatz - Let's Get It
TTITLE3=Kurupt - Game Is Over
TTITLE4=Johnny Rourke - Another Episode
TTITLE5=Bone-Thugs-N-Harmony - Crossroad
TTITLE6=Smoot - Party All Nite
TTITLE7=Digital Underground feat. Tupac Shakur - Same Song
TTITLE8=F.O.A. - Gett Off Me
TTITLE9=Jayo Felony feat. DMX and Method Man - Whatcha Gonna Do
TTITLE10=N.W.A. - Straight Outta Compton(Extended Mix)
TTITLE11=F.O.A. - Slip N Slide
TTITLE12=Raprock Fam - Raprock Anthem (Bonus Track)
TTITLE13=F.O.A. - Beef (Bonus Track)
TTITLE14=デ-タ
EXTD=
EXTT0=
EXTT1=
EXTT2=
EXTT3=
EXTT4=
EXTT5=
EXTT6=
EXTT7=
EXTT8=
EXTT9=
EXTT10=
EXTT11=
EXTT12=
EXTT13=
EXTT14=
PLAYORDER=
